<?xml version="1.0" encoding="utf-8"?>
<!-- Generator: Adobe Illustrator 22.0.1, SVG Export Plug-In . SVG Version: 6.00 Build 0)  -->
<svg version="1.1"
	 id="svg2" inkscape:output_extension="org.inkscape.output.svg.inkscape" inkscape:version="0.46+devel" sodipodi:docname="WCAlogo.svg" sodipodi:version="0.32" xmlns:cc="http://creativecommons.org/ns#" xmlns:dc="http://purl.org/dc/elements/1.1/" xmlns:inkscape="http://www.inkscape.org/namespaces/inkscape" xmlns:rdf="http://www.w3.org/1999/02/22-rdf-syntax-ns#" xmlns:sodipodi="http://sodipodi.sourceforge.net/DTD/sodipodi-0.dtd" xmlns:svg="http://www.w3.org/2000/svg"
	 xmlns="http://www.w3.org/2000/svg" xmlns:xlink="http://www.w3.org/1999/xlink" x="0px" y="0px" viewBox="0 0 650.1 349.5"
	 style="enable-background:new 0 0 650.1 349.5;" xml:space="preserve">
<defs>
	
	
		<inkscape:perspective  id="perspective10" inkscape:persp3d-origin="372.04724 : 350.78739 : 1" inkscape:vp_x="0 : 526.18109 : 1" inkscape:vp_y="0 : 1000 : 0" inkscape:vp_z="744.09448 : 526.18109 : 1" sodipodi:type="inkscape:persp3d">
		</inkscape:perspective>
	
		<inkscape:perspective  id="perspective2708" inkscape:persp3d-origin="0.5 : 0.33333333 : 1" inkscape:vp_x="0 : 0.5 : 1" inkscape:vp_y="0 : 1000 : 0" inkscape:vp_z="1 : 0.5 : 1" sodipodi:type="inkscape:persp3d">
		</inkscape:perspective>
</defs>
<sodipodi:namedview  bordercolor="#666666" borderopacity="1.0" gridtolerance="10000" guidetolerance="10" id="base" inkscape:current-layer="layer1" inkscape:cx="880.50941" inkscape:cy="-106.135" inkscape:document-units="px" inkscape:guide-bbox="true" inkscape:pageopacity="0.0" inkscape:pageshadow="2" inkscape:window-height="951" inkscape:window-width="1280" inkscape:window-x="0" inkscape:window-y="25" inkscape:zoom="0.49497475" objecttolerance="10" pagecolor="#ffffff" showgrid="false" showguides="true">
	</sodipodi:namedview>
<g>
	<g>
		<path fill="#DDEDF4" d="M418.5,85.3c-7.5-11.6-16.4-21.1-27.6-29.4c-17.7-13.2-39-20.9-61.2-22.2l-5-0.3l-0.1-16.6c-0.1-13.9,0-16.6,0.5-16.8
			c0.9-0.4,13.2,0.6,19.6,1.5c8.6,1.2,16.1,3,25,6c9,3,14.2,5.2,22.2,9.4c19.1,10,35.7,24.2,49,41.8c3.8,5.1,9,13.1,8.8,13.6
			c-0.1,0.4-28.1,16.6-28.6,16.6C420.9,88.9,419.7,87.3,418.5,85.3L418.5,85.3L418.5,85.3L418.5,85.3z"/>
		<path fill="#DDEDF4" id="path2726_1_" sodipodi:nodetypes="cssscsscccsss" d="M436.4,210.9c-7.4-4.3-13.7-8.1-13.9-8.4c-0.2-0.4,0.4-2.1,1.9-5.1
			c16-31.9,16-69.6,0-101.5c-1.2-2.5-2.2-4.7-2.1-5c0.2-0.6,27.2-16.2,28.1-16.2c1.9-0.1,10.7,20,14,32.1c3.9,14.1,5.3,25,5.3,39.9
			c0,14.8-1.4,25.7-5.3,39.9c-3.2,11.7-12,32-14,32.2C450.2,218.7,443.8,215.2,436.4,210.9L436.4,210.9L436.4,210.9L436.4,210.9z"/>
		<path fill="#DDEDF4" d="M192.7,212.4c-6.8-13.7-11.2-27-13.6-41.6c-1.4-8.4-1.9-14.8-1.9-24.6c0-19.3,3.5-37.3,10.7-54.9c1.8-4.5,7.3-15.9,8-16.6
			c0.3-0.3,27.1,14.8,28.5,16c0.2,0.2-0.7,2.3-1.9,4.8c-5.9,11.7-9.8,24.7-11.6,38.6c-0.8,6-0.6,20.1,0.2,26.4
			c1.8,13.7,5.8,26.5,11.7,37.8c1.5,2.9,1.8,3.8,1.4,4.2c-0.9,0.8-27.3,16-27.9,16C195.9,218.4,194.3,215.8,192.7,212.4L192.7,212.4
			L192.7,212.4L192.7,212.4z"/>
		<path fill="#DDEDF4" id="path2722_1_" sodipodi:nodetypes="cscccccssssccccc" d="M211.9,81.1c-7.5-4.3-14-8.2-14.3-8.5c-0.5-0.5-0.1-1.3,2.2-4.9
			c19.9-31.5,52.1-54.5,88.5-63.4c10.2-2.5,19.8-3.8,29.4-4.1l4.4-0.1v16.6v16.6l-5,0.3c-20.2,1.2-39.4,7.5-56,18.6
			c-7.4,4.9-11.6,8.4-17.6,14.4c-5.8,5.8-9.4,10.1-14,17.1c-1.8,2.7-3.5,5-3.6,5.1C225.8,88.9,219.5,85.4,211.9,81.1L211.9,81.1
			L211.9,81.1L211.9,81.1z"/>
		<path fill="#DDEDF4" id="path2802_1_" sodipodi:nodetypes="cssscsscccsss" d="M211.4,212c7.5-4.3,13.9-7.8,14.2-7.8c0.4,0,1.6,1.4,3.5,4.2
			c19.6,29.8,52.3,48.6,87.9,50.7c2.8,0.2,5.2,0.5,5.4,0.7c0.4,0.5,0.4,31.6,0,32.4c-0.8,1.7-22.7-0.7-34.8-3.9
			c-14.1-3.7-24.3-7.9-37.2-15.3c-12.8-7.4-21.5-14.1-31.8-24.6c-8.5-8.6-21.7-26.4-20.9-28.2C197.7,220.1,203.9,216.3,211.4,212
			L211.4,212L211.4,212L211.4,212z"/>
		<path fill="#DDEDF4" d="M324.7,292.8c-0.1-0.3-0.2-7.9-0.1-16.8l0.1-16.2l5-0.3c20.2-1.2,39.4-7.6,56.1-18.6c7.4-4.9,11.6-8.4,17.6-14.4
			c5.8-5.8,9.4-10.2,14-17.1c1.8-2.7,3.5-5,3.6-5.1c0.3-0.1,27.4,15.5,28.2,16.3c0.5,0.5,0.1,1.3-2.1,4.7
			c-13.9,21.9-34.4,40.5-57.5,52.1c-19,9.5-37.6,14.4-60,15.7C325.8,293.3,324.9,293.2,324.7,292.8L324.7,292.8L324.7,292.8
			L324.7,292.8z"/>
		<g>
			<path fill="#DDEDF4" d="M227.4,92.7c-0.2,0.1-0.3,24.8-0.2,54.9l0.1,54.6l47,27.2c25.9,15,47.3,27.2,47.5,27.2c0.4,0,0.5-11.2,0.5-54.7v-54.7
				l-1.5-0.9C306.2,137.6,227.6,92.5,227.4,92.7z M253.7,163.5c0.2,16.2,0.2,16.2,3.4,19.4c2.6,2.6,4.5,3.8,24.2,14.5
				c9.9,5.4,18.4,10.2,18.8,10.7c0.6,0.7,0.7,1.8,0.7,8.2c0,5.4-0.2,7.5-0.5,7.9c-0.4,0.3-5.7-2.4-19.8-10.1
				c-10.7-5.8-20.6-11.3-22.1-12.3c-3.8-2.5-9.5-8.3-11.6-11.8c-4.3-7.3-5.1-12.6-5.1-32.9c0-15.5,0.3-19,1.7-22.3
				c2.4-5.3,6.8-6.5,13.9-3.7c3.1,1.2,42,22.7,42.8,23.7c0.6,0.8,0.7,1.8,0.7,8.2c0,4-0.2,7.6-0.4,7.9c-0.5,0.8,0.6,1.4-20.5-10.3
				c-24.1-13.4-23.8-13.2-25.5-12C253.6,149.2,253.6,149.7,253.7,163.5z"/>
			<path fill="#DDEDF4" d="M377.1,158.1c-0.2-0.1-2,4.6-4,10.5c-2.8,8.3-3.5,10.6-2.9,10.4c1.4-0.5,13.8-7.3,14-7.7
				C384.5,170.9,377.6,158.3,377.1,158.1z"/>
			<path fill="#DDEDF4" d="M419.3,92.8c-0.2-0.1-67.4,38.6-90.5,52l-4.3,2.5V202c0,30,0.2,54.6,0.4,54.6s2.4-1.1,4.9-2.6s23.5-13.6,46.6-26.9
				c23.1-13.4,42.3-24.5,42.6-24.8c0.4-0.4,0.5-10.1,0.5-54.9C419.5,117.5,419.4,92.9,419.3,92.8z M407.4,188.6
				c-0.1,0.4-2.3,1.9-4.9,3.4l-4.7,2.7l-0.7-0.9c-0.4-0.5-2.1-3.3-3.7-6.3c-1.7-3-3.1-5.4-3.3-5.4s-6.3,3.3-13.6,7.4l-13.3,7.4
				l-3.7,10.8l-3.7,10.8l-2.5,1.5c-5.3,3.2-8.8,5-9.1,4.6c-0.1-0.3,1.9-6.6,4.6-14.1s9-25.3,14-39.6s9.5-26.9,10-27.9
				c1.1-2.4,3.6-4.8,5.2-5.2c2.6-0.5,3.4,0.4,7.4,8c2,3.8,7.9,14.9,13,24.6C403.5,180.1,407.7,188.4,407.4,188.6z"/>
			<path fill="#DDEDF4" d="M323.4,35.9c-1,0-94.6,53.9-94.6,54.5c0,0.2,21.1,12.6,46.9,27.5c25.8,15,47.2,27.2,47.6,27.2c0.6,0,94-53.6,94.9-54.5
				C418.6,90.2,324.6,35.9,323.4,35.9z M362.4,95.6c-10.7,21.2-11.7,23.1-13.3,24.2c-3.1,2.2-8.3,1.9-11.1-0.5
				c-0.9-0.8-3.4-5.2-8-14.1c-3.6-7.1-6.8-12.9-6.9-12.9s-3.2,5.7-6.8,12.6c-3.6,6.9-6.9,13-7.2,13.5s-1.4,1.3-2.3,1.8
				c-2.1,1.1-6.1,1.4-8.4,0.6c-3-1.2-3.8-2.5-10.5-16.1c-12.5-25.4-15.7-32.5-15.1-32.9c0.3-0.2,3.5-0.4,7.1-0.4
				c5.7,0,6.6,0.1,7.1,0.7c0.4,0.4,3.9,7.3,7.9,15.4s7.4,14.7,7.5,14.7s3.2-5.8,6.9-12.8s7.1-13.3,7.7-14c3.1-3.7,9.8-3.6,12.6,0.2
				c0.6,0.8,3.9,6.9,7.4,13.7c3.5,6.7,6.5,12.4,6.7,12.6s3.7-6.4,7.9-14.8c4.1-8.3,7.7-15.2,8-15.4c0.2-0.2,3.5-0.3,7.2-0.3
				c5.5,0,6.8,0.1,7,0.6C373.9,72.3,368.8,82.9,362.4,95.6z"/>
		</g>
	</g>
</g>
</svg>
